<?xml version="1.0" encoding="utf-8"?>
<!-- Generator: Adobe Illustrator 19.0.0, SVG Export Plug-In . SVG Version: 6.00 Build 0)  -->
<svg version="1.1" id="Layer_1" xmlns="http://www.w3.org/2000/svg" xmlns:xlink="http://www.w3.org/1999/xlink" x="0px" y="0px"
	 viewBox="-127 189.9 704.7 183.1" style="enable-background:new -127 189.9 704.7 183.1;" xml:space="preserve">
<style type="text/css">
	.st0{fill:#2563EB;}
</style>
<path id="XMLID_55_" class="st0" d="M47.2,352.5c-6.6,15.3-32,20.8-59.4,9.3c-5.2-2.2-10.9-5.5-15.9-8.2
	c-21.6-12.3-43.2-30.9-65.9-14c-3.6,2.5-8.2-4.1-1.4-8.5c5.2-3.3,10.1-4.9,15-5.7c-25.1-10.9-42.6-35.3-42.6-63.2
	c0-38.3,33.1-69.5,73.6-69.5c40.8,0,73.9,31.2,73.9,69.5S-8.3,331.7-49.1,332c9,4.1,17.8,9.8,25.7,14.5c20,11.5,35,10.7,37.8-2.7
	C19.6,319.2,54.9,334.5,47.2,352.5z M-78.4,262.2c0,32.8,13.1,59.4,29,59.4c16.1,0,29.3-26.5,29.3-59.4c0-32.6-13.1-59.1-29.3-59.1
	C-65.2,203.1-78.4,229.7-78.4,262.2z"/>
<path id="XMLID_58_" class="st0" d="M161.8,326.3c2.5,2.7,1.9,5.7-0.8,5.7h-25.2c-12,0-19.7-7.9-22.4-15.9
	c-6,8.8-14.5,15.9-26.8,15.9c-24.6,0-43.5-11.5-43.5-52c0-10.1-1.6-16.1-11.2-23.5c-2.7-2.2-1.6-5.5,1.1-5.5
	c26.3,0,37.2-17.8,47.6-20c5.7-1.1,3.3,3.3,2.5,6.8c-6.8,32.6-5.7,81.5,14.8,81.5c5.7,0,10.9-8.2,14.5-16.4v-23
	c0-10.1-1.6-16.1-11.2-23.5c-2.7-2.2-1.6-5.5,1.1-5.5c26.3,0,37.5-17.8,47.6-20c5.7-1.1,3.3,3.3,2.7,6.8
	C149,259.8,144.9,306,161.8,326.3z"/>
<path id="XMLID_60_" class="st0" d="M170.1,332c-2.7,0-3.8-3.6-1.1-5.7c9.6-7.1,11.2-13.1,11.2-23.3v-23c0-10.1-1.6-16.1-11.2-23.5
	c-2.7-2.2-1.6-5.5,1.1-5.5c26.3,0,37.2-17.8,47.6-20c5.7-1.1,3,3.3,2.5,6.8c-7.4,48.7-4.1,79.6,6,87.3c3,2.2,3,6.8-2.7,6.8
	L170.1,332L170.1,332z M172.2,212.7c2.5-11.2,13.4-20,24.6-20c10.9,0,18.1,8.8,15.6,20c-2.5,10.9-13.4,20-24.6,20
	C176.9,232.7,169.8,223.7,172.2,212.7z"/>
<path id="XMLID_63_" class="st0" d="M294.5,311.5c10.1,2.7,26.8-0.8,34.5-10.9c2.7-3.6,7.4,1.1,5.7,4.1c-9,16.1-27.4,27.4-48.4,27.4
	c-30.4,0-54.7-22.7-54.7-50.6s24.4-50.6,54.7-50.6c20.8,0,37.5,7.9,47.9,26.5c10.7,18.9-30.6,36.4-32.6,16.4
	c-1.6-20-0.5-35.3-9.8-35.3C276.8,238.4,257.3,300.8,294.5,311.5z"/>
<path id="XMLID_65_" class="st0" d="M470.2,332h-57.5c-3,0-5.2-3.6-3-5.7c7.1-7.1,6.3-13.1,3.8-23.3c-3.8-14.8-9.3-40.2-23.5-36.7
	c0.5,29.8,4.9,54.4,10.9,58.8c2.7,2.2,3,6.8-3,6.8h-54.2c-2.7,0-3.8-3.6-1.1-5.7c9.6-7.1,11.2-13.1,11.2-23.3v-61.5
	c0-10.1-1.6-16.1-11.2-23.3c-2.7-2.2-1.6-5.5,1.1-5.5c26.3,0,38.3-18.1,48.4-20c5.7-1.4,3.3,3.3,2.7,6.8
	c-3.6,18.9-4.9,39.7-4.9,58.8c14-3.8,37.2-38.3,59.9-24.1c18.6,11.5-0.8,33.4-20.8,20.8c-6.3-4.1-11.8-2.5-17.2,0.5
	c24.6,6.6,30.1,51.2,59.1,69.5C474.6,327.4,475.9,332,470.2,332z"/>
<path id="XMLID_67_" class="st0" d="M574.2,281.4c0,27.9-24.4,50.6-54.4,50.6c-30.4,0-54.7-22.7-54.7-50.6s24.4-50.6,54.7-50.6
	C549.8,230.8,574.2,253.5,574.2,281.4z M535.3,281.4c0-23.8-7.1-43-15.6-43c-8.8,0-15.9,19.2-15.9,43c0,23.5,7.1,43,15.9,43
	C528.2,324.3,535.3,304.9,535.3,281.4z"/>
</svg>
